<svg width="600" height="400" viewBox="0 0 600 400" fill="none" xmlns="http://www.w3.org/2000/svg">
  <defs>
    <linearGradient id="bg-gradient" x1="0" y1="0" x2="600" y2="400" gradientUnits="userSpaceOnUse">
      <stop stop-color="#0a0a0a"/>
      <stop offset="1" stop-color="#1a1a2e"/>
    </linearGradient>
    <linearGradient id="ai-glow" x1="0" y1="0" x2="600" y2="400" gradientUnits="userSpaceOnUse">
      <stop stop-color="#00d4ff"/>
      <stop offset="1" stop-color="#ff00ff"/>
    </linearGradient>
  </defs>
  <rect width="600" height="400" fill="url(#bg-gradient)"/>
  <!-- Midwest horizon -->
  <ellipse cx="300" cy="350" rx="220" ry="40" fill="#22223a" opacity="0.7"/>
  <!-- Circuit lines (AI theme) -->
  <g stroke="url(#ai-glow)" stroke-width="2" opacity="0.7">
    <path d="M120 350 Q180 300 300 320 Q420 340 480 300" fill="none"/>
    <path d="M200 370 Q250 340 300 350 Q350 360 400 340" fill="none"/>
    <path d="M150 340 Q200 320 300 340 Q400 360 450 320" fill="none"/>
  </g>
  <!-- AI brain (centerpiece) -->
  <g>
    <ellipse cx="300" cy="180" rx="90" ry="60" fill="none" stroke="url(#ai-glow)" stroke-width="4"/>
    <ellipse cx="300" cy="180" rx="60" ry="40" fill="none" stroke="#00d4ff" stroke-width="2" opacity="0.7"/>
    <ellipse cx="300" cy="180" rx="30" ry="20" fill="none" stroke="#ff00ff" stroke-width="2" opacity="0.7"/>
    <!-- Brain nodes -->
    <circle cx="240" cy="180" r="6" fill="#00d4ff"/>
    <circle cx="360" cy="180" r="6" fill="#ff00ff"/>
    <circle cx="300" cy="140" r="6" fill="#00d4ff"/>
    <circle cx="300" cy="220" r="6" fill="#ff00ff"/>
    <circle cx="270" cy="160" r="4" fill="#00d4ff"/>
    <circle cx="330" cy="200" r="4" fill="#ff00ff"/>
    <circle cx="330" cy="160" r="4" fill="#00d4ff"/>
    <circle cx="270" cy="200" r="4" fill="#ff00ff"/>
    <!-- Node connections -->
    <line x1="240" y1="180" x2="270" y2="160" stroke="#00d4ff" stroke-width="2"/>
    <line x1="240" y1="180" x2="270" y2="200" stroke="#ff00ff" stroke-width="2"/>
    <line x1="360" y1="180" x2="330" y2="160" stroke="#00d4ff" stroke-width="2"/>
    <line x1="360" y1="180" x2="330" y2="200" stroke="#ff00ff" stroke-width="2"/>
    <line x1="300" y1="140" x2="270" y2="160" stroke="#00d4ff" stroke-width="2"/>
    <line x1="300" y1="140" x2="330" y2="160" stroke="#00d4ff" stroke-width="2"/>
    <line x1="300" y1="220" x2="270" y2="200" stroke="#ff00ff" stroke-width="2"/>
    <line x1="300" y1="220" x2="330" y2="200" stroke="#ff00ff" stroke-width="2"/>
  </g>
  <!-- Floating data particles -->
  <circle cx="100" cy="80" r="8" fill="#00d4ff" opacity="0.4"/>
  <circle cx="500" cy="120" r="6" fill="#ff00ff" opacity="0.4"/>
  <circle cx="80" cy="320" r="10" fill="#00d4ff" opacity="0.3"/>
  <circle cx="520" cy="280" r="7" fill="#ff00ff" opacity="0.3"/>
  <!-- Text overlay -->
  <text x="300" y="380" text-anchor="middle" fill="#ffffff" font-family="Arial, sans-serif" font-size="18" opacity="0.7">
    Midwest AI Solutions
  </text>
  <text x="300" y="400" text-anchor="middle" fill="#00d4ff" font-family="Arial, sans-serif" font-size="14" opacity="0.7">
    Hamilton, Ohio
  </text>
</svg> 